<svg t="1551339937494" class="icon" viewBox="0 0 1024 1024" version="1.1" xmlns="http://www.w3.org/2000/svg" p-id="14472" height="64" width="64"><path d="M591.232361 123.424271c-9.5127-1.926623-19.386642-0.120414-27.454374 5.177799-8.067733 5.298213-13.727187 13.606773-15.65381 23.119473-2.047037 9.5127-0.120414 19.386642 5.177799 27.33396 5.298213 8.067733 13.606773 13.727187 23.119473 15.65381 76.703669 15.774224 142.690499 60.688617 185.919097 126.193791 43.108184 65.625588 58.159925 143.894638 42.3857 220.598307-2.047037 9.5127-0.120414 19.266228 5.177799 27.333961 6.381938 9.873942 17.219191 16.015052 29.019756 16.376293 7.586077 0.240828 15.05174-1.806209 21.433678-6.020696 8.067733-5.298213 13.727187-13.606773 15.65381-23.119473 40.940734-197.719661-86.818438-391.826905-284.778928-432.647225M653.968015 670.70555c2.167451 1.444967 50.212606 32.270931 87.17968 70.201317 13.968015 14.329257 37.207902 38.412041 36.605833 66.227658-0.481656 19.0254-11.198495 38.0508-32.873001 58.280339-5.418627 5.298213-53.463782 50.212606-130.408279 50.212605-21.072437 0-42.746943-3.37159-64.301034-9.873941-22.758231-6.863594-45.877705-17.460019-68.635936-31.548448-89.828786-53.222954-159.30762-121.618062-225.174036-222.043274-113.309501-172.432738-116.560677-320.060207-116.079022-347.875823 0.240828-128.481656 107.168391-178.935089 119.330198-184.353716 16.737535-7.826905 31.428034-11.559737 44.914393-11.559736 6.502352 0 12.643462 0.842897 18.42333 2.649106 11.800564 3.612418 28.176858 12.88429 39.134525 36.726246 15.05174 32.391345 29.260583 78.750706 38.893697 127.277517 10.235183 50.33302-18.062088 64.541863-45.396049 78.148636l-1.083725 0.481655s-48.285983 20.109125-56.835372 23.721543c-8.308561 3.492004-12.763876 12.88429-9.873941 21.554092 19.507056 59.002822 49.249294 120.293509 85.975541 177.128881 36.244591 55.87206 79.232361 107.409219 124.387582 149.19285 3.251176 2.889934 7.345249 4.575729 11.800564 4.575729l1.444967-0.120413c4.816557-0.361242 9.271872-2.76952 12.282221-6.622766 7.345249-9.392286 18.664158-22.999059 30.464722-34.438382 22.517404-21.433678 42.98777-31.789276 62.374412-31.789276 5.298213 0 10.596425 0.722484 15.65381 2.287865 5.057385 1.444967 13.004704 5.659454 21.79492 11.559736m-152.925682-248.534336c-9.5127-1.926623-17.821261-7.586077-23.119473-15.65381-5.298213-8.067733-7.224835-17.941675-5.298213-27.454375 3.612418-17.460019 19.266228-29.742239 37.087488-29.019755 2.047037 0 3.973659 0.240828 6.020697 0.722483 84.530574 17.460019 139.198495 100.425212 121.738476 185.0762-1.926623 9.5127-7.586077 17.821261-15.65381 23.119473-6.381938 4.214487-13.847601 6.261524-21.433679 6.020696-2.047037-0.120414-3.973659-0.361242-6.020696-0.722483-9.5127-1.926623-17.821261-7.586077-23.119473-15.65381-5.298213-8.067733-7.224835-17.941675-5.177799-27.333961 4.575729-21.79492 0.120414-44.432738-12.161806-62.976482-12.041392-18.784572-31.187206-31.668862-52.861712-36.124176m37.809972-114.152399c-19.627469-4.094073-32.391345-23.360301-28.297272-42.987771 1.926623-9.5127 7.586077-17.821261 15.65381-23.119473 8.067733-5.298213 17.941675-7.224835 27.454374-5.177799 68.395108 14.088429 127.277516 54.065851 165.809972 112.587018 38.532455 58.521167 51.898401 128.361242 37.809972 196.876764-1.926623 9.5127-7.586077 17.821261-15.65381 23.119473-8.067733 5.298213-17.941675 7.224835-27.454375 5.298213-19.627469-4.094073-32.270931-23.360301-28.297271-42.987771 10.235183-49.128881 0.361242-100.304798-27.333961-142.088429-27.454374-42.265287-70.562559-71.52587-119.691439-81.520225z m0 0" fill="#2DB56D" p-id="14473"></path></svg>