<svg t="1551335716386" class="icon" viewBox="0 0 1024 1024" version="1.1" xmlns="http://www.w3.org/2000/svg" p-id="64707" height="64" width="64"><path d="M512 590.933333a256 256 0 1 1 256-256 256 256 0 0 1-256 256z m0-426.666666a170.666667 170.666667 0 1 0 170.666667 170.666666 170.666667 170.666667 0 0 0-170.666667-170.666666z" p-id="64708" fill="#1296db"></path><path d="M810.666667 932.266667a42.666667 42.666667 0 0 1-42.666667-42.666667 256 256 0 0 0-512 0 42.666667 42.666667 0 0 1-85.333333 0 341.333333 341.333333 0 1 1 682.666666 0 42.666667 42.666667 0 0 1-42.666666 42.666667z" p-id="64709" fill="#1296db"></path></svg>