<svg t="1551334876775" class="icon" viewBox="0 0 1025 1024" version="1.1" xmlns="http://www.w3.org/2000/svg" p-id="17075" height="64" width="64"><path d="M774.534058 371.47773c60.38366-0.001199 109.308689 62.915144 109.30689 140.511333-0.005796 77.632765-48.926628 140.508335-109.290501 140.529321-60.363673-0.018587-109.308689-62.911346-109.284705-140.526123C665.267341 434.39847 714.193769 371.480328 774.534058 371.47773zM774.552445 590.075921c25.85547-0.022785 46.821655-34.980883 46.842841-78.090455 0.003997-43.087387-20.984772-78.063673-46.839643-78.041488-25.879654-0.001399-46.868623 34.935114-46.826252 78.068869C727.710604 555.12102 748.693778 590.053536 774.552445 590.075921zM384.224288 465.151219c-93.986877 0.001999-187.307206 0.027381-265.417047 0.028381-25.834484 0.001799-46.822654 27.339464-46.824453 46.824453 0.001999 19.526961 20.963187 46.841641 46.844639 46.844839 18.860013-0.026982 76.304865-0.005996 78.063473-0.005196l31.222831 31.222831c0 0 30.254687 31.156076 46.820855 31.155676 16.586554-0.021985 46.84324-31.136689 46.84324-31.136689l31.245615-31.245815c13.64355-0.0002 92.956975-0.001999 150.252329-0.002998 30.256086 0.003797 68.298094 62.465249 68.298094 62.465249l0.025982-1.483594c35.894064 57.102884 99.280488 95.123906 171.705983 95.144092 112.098397-0.002199 202.975183-90.879184 202.97938-202.97938-0.0002-112.099596-90.853601-202.952998-202.951399-202.951199-104.094024-0.016988-195.829827 108.973316-234.197014 156.138738L493.534376 396.869914c63.950641-79.485309 147.83157-150.275713 249.77945-150.300696 146.605801-0.001199 265.436834 118.830033 265.435835 265.435835-0.021585 146.581818-118.841426 265.401658-265.423243 265.423243-107.571666-0.020586-199.988408-64.11493-241.68174-156.148132l-128.664965 0.003198c-29.506794 29.590937-68.667244 62.228809-98.024539 62.228809-29.375883-0.018587-68.534933-32.656059-98.042327-62.201827 0 0-69.953571-0.000999-58.087017-0.019187-60.365072 0.020986-109.285305-80.017148-109.284705-109.284705-0.0006-29.271354 48.906841-109.289302 109.290501-109.290501 68.535533-0.003797 168.857115 0.01499 265.418446 0.011192L384.224288 465.151219z" p-id="17076" fill="#1296db"></path></svg>