<svg t="1551341870379" class="icon" viewBox="0 0 1024 1024" version="1.1" xmlns="http://www.w3.org/2000/svg" p-id="2881" height="64" width="64"><path d="M192 320c0-64 12.8-115.2 25.6-147.2s38.4-64 70.4-89.6c32-32 64-51.2 108.8-64C435.2 6.4 473.6 0 518.4 0c89.6 0 160 25.6 224 76.8C800 128 832 192 832 275.2c0 38.4-12.8 70.4-25.6 102.4s-44.8 70.4-96 115.2S640 569.6 620.8 588.8s-25.6 44.8-38.4 70.4S576 704 576 768H448c0-64 6.4-96 12.8-128s19.2-57.6 38.4-83.2 38.4-57.6 83.2-102.4 76.8-76.8 89.6-96c12.8-19.2 25.6-51.2 25.6-96s-19.2-76.8-51.2-108.8-76.8-51.2-134.4-51.2C384 102.4 320 192 320 320H192z m384 704H448v-128h128v128z" fill="#1296db" p-id="2882"></path></svg>