<svg t="1551321362138" class="icon" viewBox="0 0 1408 1024" version="1.1" xmlns="http://www.w3.org/2000/svg" p-id="4048" height="16" width="16"><path d="M660.053333 0c-208.938667 0-379.733333 157.077333-394.56 356.010667C111.872 398.464 0 528.64 0 682.666667c0 181.674667 155.669333 330.944 352 341.333333h660.053333C1230.570667 1024 1408 842.474667 1408 618.666667c0-215.765333-173.802667-391.466667-392.96-404.138667C950.4 87.552 816 0 660.053333 0zM405.333333 448c0-35.349333 28.8-64 63.914667-64h469.504a64 64 0 0 1 0 128H469.248A64 64 0 0 1 405.333333 448z m0 170.666667c0-35.349333 28.8-64 63.914667-64h469.504a64 64 0 0 1 0 128H469.248A64 64 0 0 1 405.333333 618.666667z m0 170.666666c0-35.349333 28.8-64 63.914667-64h469.504a64 64 0 0 1 0 128H469.248A64 64 0 0 1 405.333333 789.333333z" p-id="4049" fill="#ffffff"></path></svg>