<svg t="1551321482733" class="icon" viewBox="0 0 1024 1024" version="1.1" xmlns="http://www.w3.org/2000/svg" p-id="9792" height="16" width="16"><path d="M707.904 769.344c6.592 18.048 17.408 40.576 36.608 64.064C794.176 894.336 885.056 960 885.056 960L157.568 960c0 0 93.696-69.12 144.448-131.328 14.464-17.728 23.68-34.752 29.888-49.536-114.944-65.024-192.96-190.08-192.96-333.888C138.944 234.688 305.92 64 512 64c206.016 0 373.056 170.688 373.056 381.248C885.056 582.336 814.08 702.144 707.904 769.344zM512 197.44c-133.952 0-242.496 110.912-242.496 247.808S378.048 693.056 512 693.056c133.888 0 242.432-110.912 242.432-247.808S645.888 197.44 512 197.44zM512 578.752c-72.128 0-130.56-59.84-130.56-133.504S439.872 311.808 512 311.808c72.064 0 130.56 59.776 130.56 133.44S584.064 578.752 512 578.752z" p-id="9793" fill="#ffffff"></path></svg>